<?xml version="1.0" standalone="no"?>
<!DOCTYPE svg PUBLIC "-//W3C//DTD SVG 20010904//EN"
 "http://www.w3.org/TR/2001/REC-SVG-20010904/DTD/svg10.dtd">
<svg version="1.0" xmlns="http://www.w3.org/2000/svg"
 width="512.000000pt" height="512.000000pt" viewBox="0 0 512.000000 512.000000"
 preserveAspectRatio="xMidYMid meet">
<metadata>
Created by potrace 1.14, written by Peter Selinger 2001-2017
</metadata>
<g transform="translate(0.000000,512.000000) scale(0.100000,-0.100000)"
fill="#000000" stroke="none">
<path d="M2387 5105 c-142 -27 -283 -92 -407 -189 -37 -29 -80 -50 -130 -65
-41 -13 -120 -41 -175 -63 -814 -324 -1385 -1066 -1496 -1943 -16 -127 -17
-441 -1 -565 18 -141 50 -291 88 -417 l34 -112 -125 -253 c-140 -283 -163
-352 -172 -518 -23 -440 266 -835 698 -952 110 -30 337 -32 439 -5 194 53 345
140 465 268 l46 49 93 -34 c286 -108 657 -160 969 -137 240 17 470 65 659 136
l92 34 72 -68 c129 -123 261 -198 424 -242 122 -33 338 -33 459 -1 334 91 584
340 673 672 33 122 33 338 0 459 -44 164 -120 296 -243 425 l-68 72 34 90
c108 286 160 661 136 971 -19 249 -77 518 -149 692 -20 49 -34 68 -53 75 -37
13 -76 0 -96 -30 -16 -25 -15 -30 25 -152 58 -176 79 -263 103 -431 28 -193
23 -523 -10 -701 -27 -140 -97 -390 -110 -390 -4 0 -61 55 -129 123 l-123 123
21 88 c138 578 -6 1203 -380 1661 -127 156 -350 347 -506 436 l-52 30 -12 82
c-13 91 -47 202 -86 278 l-25 51 23 -7 c13 -4 70 -29 127 -56 368 -173 681
-445 913 -794 44 -66 90 -126 104 -133 47 -25 104 12 104 66 0 42 -116 220
-243 371 -291 347 -711 627 -1126 751 -54 16 -92 36 -145 76 -89 69 -227 137
-331 165 -106 27 -300 34 -408 14z m305 -150 c168 -29 308 -105 430 -234 87
-91 140 -178 173 -285 38 -116 45 -187 45 -443 l0 -232 26 -20 c35 -28 69 -26
99 4 24 23 25 28 25 170 0 80 3 145 8 145 4 0 47 -29 97 -65 480 -344 757
-912 732 -1500 -5 -114 -31 -321 -42 -333 -1 -1 -26 10 -56 25 -46 24 -65 28
-139 28 -97 0 -140 -18 -199 -79 l-34 -35 -38 34 c-55 49 -95 67 -164 73 -99
7 -192 -45 -234 -132 l-21 -43 -43 10 c-34 7 -56 6 -101 -7 -130 -38 -207
-167 -173 -291 8 -27 18 -58 22 -67 5 -13 3 -18 -9 -18 -10 0 -39 -22 -66 -49
-56 -56 -86 -135 -75 -199 6 -36 5 -37 -40 -56 -57 -23 -111 -85 -130 -150
-19 -62 -19 -80 1 -145 12 -43 31 -69 96 -137 45 -46 79 -86 77 -88 -2 -2 -47
-11 -99 -20 -199 -35 -457 -31 -655 10 -93 19 -245 65 -245 75 0 4 17 42 38
85 35 74 37 85 37 174 0 98 -8 123 -74 226 -13 19 0 37 200 263 118 134 224
263 237 289 33 68 28 161 -14 228 -43 70 -108 107 -195 112 -126 7 -158 -20
-507 -427 -12 -14 27 74 88 197 104 212 110 227 110 285 -1 79 -24 131 -83
183 -75 66 -171 82 -257 43 -72 -32 -97 -65 -177 -223 l-74 -148 -27 25 c-87
81 -228 84 -317 6 l-35 -31 -33 28 c-19 16 -41 34 -50 39 -19 12 -37 165 -37
313 0 480 215 969 567 1291 72 66 249 200 265 201 3 0 8 -114 10 -252 3 -235
5 -256 25 -300 48 -104 162 -193 263 -205 l49 -6 3 -201 c3 -221 7 -235 72
-304 60 -65 144 -89 237 -69 34 7 37 6 50 -25 19 -46 75 -106 123 -131 56 -29
156 -29 212 0 48 25 104 85 123 131 13 31 16 32 50 25 57 -13 126 -6 168 16
47 23 103 83 122 129 13 31 16 32 50 25 94 -19 181 7 244 72 58 60 67 102 67
315 0 174 -1 189 -21 214 -26 33 -79 36 -109 6 -19 -19 -20 -33 -20 -200 0
-142 -3 -187 -15 -210 -30 -59 -98 -68 -146 -21 l-29 29 0 266 c0 263 0 265
-23 292 -28 33 -76 37 -107 9 -19 -17 -20 -30 -20 -354 0 -352 -5 -399 -43
-426 -35 -25 -94 -19 -122 11 l-25 27 0 353 0 353 -23 27 c-30 35 -79 37 -110
5 -22 -21 -22 -25 -27 -472 l-5 -451 -24 -19 c-30 -25 -92 -25 -122 0 l-24 19
-5 451 c-5 447 -5 451 -27 472 -31 32 -80 30 -110 -5 l-23 -27 0 -345 c0 -352
-2 -373 -39 -401 -20 -15 -76 -17 -103 -2 -47 25 -48 43 -48 619 0 363 -4 548
-11 561 -15 28 -53 41 -86 28 -52 -20 -52 -22 -53 -341 0 -279 -1 -298 -18
-298 -36 0 -107 46 -137 88 l-30 44 -3 324 c-2 262 0 342 13 417 55 317 307
574 620 631 105 19 174 19 277 1z m-978 -381 c-38 -80 -68 -185 -79 -274 l-7
-55 -101 -65 c-446 -285 -743 -718 -853 -1245 -25 -118 -28 -151 -28 -350 -1
-121 2 -241 6 -267 l7 -47 -36 -12 c-57 -19 -113 -84 -168 -197 -27 -56 -52
-102 -56 -102 -3 0 -16 46 -28 103 -67 312 -71 647 -10 947 135 665 577 1246
1180 1551 82 41 187 88 201 89 4 0 -9 -34 -28 -76z m-27 -2164 c23 -14 34 -29
39 -56 6 -35 -6 -64 -160 -371 -120 -241 -166 -343 -166 -368 0 -26 9 -45 34
-73 31 -33 40 -37 84 -37 40 0 56 5 78 25 14 14 137 150 271 303 135 152 253
282 263 287 81 43 173 -52 124 -128 -36 -55 -446 -512 -455 -507 -17 11 -85
-15 -111 -42 -34 -37 -298 -566 -298 -598 0 -59 85 -88 127 -43 12 13 78 137
148 277 l126 253 31 -28 c17 -16 39 -47 49 -69 37 -80 31 -99 -122 -406 -156
-313 -188 -366 -281 -456 -117 -113 -247 -181 -404 -208 -136 -24 -240 -16
-374 26 -348 112 -579 471 -532 827 17 123 40 189 143 393 l89 178 50 -34 c53
-36 118 -51 176 -42 30 5 36 2 49 -23 60 -117 212 -164 333 -104 29 14 63 40
76 58 13 17 129 241 259 497 170 335 243 469 259 477 34 16 59 14 95 -8z
m-902 -315 c41 -41 34 -77 -50 -243 -42 -82 -85 -158 -96 -168 -33 -30 -96
-25 -125 9 -40 46 -32 83 48 241 40 77 83 151 95 164 32 32 95 31 128 -3z
m380 0 c44 -43 36 -74 -90 -324 -66 -132 -124 -236 -137 -245 -52 -37 -132 -5
-143 58 -6 28 10 67 114 274 66 132 128 245 138 251 34 20 92 13 118 -14z
m2983 -39 c15 -8 171 -160 348 -338 347 -349 378 -388 428 -538 71 -215 47
-452 -66 -645 -53 -90 -183 -220 -273 -273 -194 -113 -430 -138 -645 -66 -137
46 -199 91 -408 298 l-193 191 28 20 c44 31 74 67 93 108 l17 38 70 2 c55 2
78 8 117 31 53 31 101 97 117 162 10 40 13 42 70 58 104 28 179 129 179 238 0
34 3 39 38 53 20 9 54 29 75 46 l37 30 68 -60 c53 -48 73 -61 99 -61 45 0 73
30 73 77 0 33 -11 47 -122 160 -166 168 -222 199 -319 173 -36 -10 -67 -35
-179 -145 -132 -131 -166 -155 -217 -155 -24 0 -103 38 -103 49 0 13 517 521
550 540 41 24 80 27 118 7z m-470 -10 c15 -8 35 -23 44 -33 17 -18 15 -22 -47
-83 l-65 -64 -30 29 c-60 58 -24 160 58 164 7 1 25 -5 40 -13z m-247 -223 l70
-68 -69 -68 -69 -68 -66 71 c-59 62 -67 75 -67 109 0 53 38 91 91 91 35 0 47
-8 110 -67z m624 -223 c11 -18 -14 -48 -50 -60 -52 -17 -62 -3 -24 36 33 34
62 43 74 24z m-628 -262 c107 -106 196 -203 199 -215 16 -60 -27 -113 -90
-113 -39 0 -47 6 -233 193 -188 188 -193 194 -193 234 0 34 6 46 31 67 62 53
72 47 286 -166z m427 57 c41 -63 0 -145 -73 -145 -26 0 -47 9 -75 32 l-38 31
53 28 c30 15 65 39 78 53 30 32 35 32 55 1z m-796 -179 c15 -8 81 -69 147
-135 112 -113 120 -123 120 -160 0 -56 -35 -91 -89 -91 -39 0 -47 6 -173 132
-127 127 -133 134 -133 174 0 29 6 46 23 61 38 35 65 40 105 19z m-1083 -486
c313 -106 727 -119 1059 -34 l59 15 124 -123 c67 -67 123 -125 123 -129 0 -9
-224 -76 -330 -98 -151 -31 -272 -42 -460 -42 -279 0 -541 47 -783 140 l-27
11 72 145 c40 80 73 145 73 145 0 0 41 -14 90 -30z"/>
</g>
</svg>
